<svg id="Layer_1" data-name="Layer 1" xmlns="http://www.w3.org/2000/svg" xmlns:xlink="http://www.w3.org/1999/xlink" viewBox="0 0 320 320"><defs><style>.cls-1{fill:url(#linear-gradient);}.cls-2{fill:url(#linear-gradient-2);}</style><linearGradient id="linear-gradient" x1="35.81" y1="160.09" x2="177.07" y2="160.09" gradientUnits="userSpaceOnUse"><stop offset="0" stop-color="#bb8c4a"/><stop offset="1" stop-color="#f6ea9c"/></linearGradient><linearGradient id="linear-gradient-2" x1="176.99" y1="160" x2="284.19" y2="160" xlink:href="#linear-gradient"/></defs><path class="cls-1" d="M55.12,101.13q-7.26,33.57-14.51,67.12h6.14q-5.46,25.42-10.94,50.86H73.64l10.27-43,3.42,18.14,28.49,0q5.16-8.72,10.33-17.43Q122,198,117.79,219.11h39.94l11.19-50.86-7.81-.05,16-67-44.21-.07-25.79,42.11q-4.68-21.08-9.35-42.17Z"/><path class="cls-2" d="M274.72,168.07s-2.46-9.3-11.06-13.68c0,0,37.37-34.39-4.38-53.52l-65,.26-15.39,67,9.54.14L177,219.13h67a69.84,69.84,0,0,0,34.74-24.74,49.22,49.22,0,0,0,2.72-6.84,67.17,67.17,0,0,0,2.72-19.48Zm-47.86-38.6c13.69-.53,11.54,7.5,11.54,7.5-.05,11.41-15.71,9.34-15.71,9.34Zm16.8,51.76c-5.26,14.39-21.76,11.05-21.76,11.05l4.74-21.23C244.36,169.12,243.66,181.23,243.66,181.23Z"/></svg>